<svg version="1.2" xmlns="http://www.w3.org/2000/svg" viewBox="0 0 120 26" width="120" height="26"><defs><clipPath clipPathUnits="userSpaceOnUse" id="cp1"><path d="m-906-906h1440v6408h-1440z"/></clipPath></defs><style>.a{fill:#3e4581}</style><g clip-path="url(#cp1)"><path fill-rule="evenodd" class="a" d="m13.4 13.7c0 1.7-0.7 3.3-2.1 4.3-1 0.9-2.3 1.2-4.1 1.2h-7.2v-18.1h6.4c1.6 0 2.8 0.4 3.7 1.1 1.2 0.9 1.8 2.3 1.8 3.8 0 1.1-0.3 2.2-1.1 3.1q0.3 0.1 0.6 0.3c1.3 1.1 2.1 2.6 2 4.3zm-10.2-5.7h2.7c1.4 0 1.9-0.3 2.2-0.6q0.6-0.6 0.6-1.4c0-0.5-0.3-1-0.6-1.4-0.3-0.3-0.8-0.6-2.2-0.6h-2.7zm7 5.6c0-0.6-0.3-1.3-0.8-1.8-0.4-0.4-1-0.8-2.7-0.8h-3.5v5.3h3.5c1.7 0 2.3-0.4 2.7-0.8 0.5-0.5 0.8-1.2 0.8-1.9z"/><path class="a" d="m23.9 6.9h3v12.3h-3z"/><path class="a" d="m25.4 1.1c-1.1 0-1.9 0.8-1.9 1.8 0 1.1 0.8 1.9 1.9 1.9 1 0 1.9-0.8 1.9-1.9 0-1-0.9-1.8-1.9-1.8z"/><path fill-rule="evenodd" class="a" d="m38.3 6.9h2.9v11.5c0 1.8-0.2 3-0.7 4-1.1 2-3.1 3.1-5.5 3.1-3.2 0-5.3-1.6-6.1-2.9l-0.2-0.2 2.2-2 0.2 0.3c0.8 1 1.8 2 3.8 2 1.2 0 2.1-0.4 2.7-1.3 0.4-0.6 0.6-1.5 0.6-2.9q-1.5 1-3.4 1c-1.1 0-2.3-0.3-3.1-0.9-2.1-1.1-3.3-3.2-3.3-5.6 0-2.3 1.3-4.5 3.3-5.6 0.8-0.5 1.9-0.8 3.1-0.8q2 0 3.5 1.1zm-0.1 4.1c-0.8-1-2-1.5-3.2-1.5-2.1 0-3.6 1.5-3.6 3.6 0 2 1.6 3.6 3.7 3.6 1.2 0 2.3-0.6 3.1-1.5z"/><path class="a" d="m49.2 6.6c-1.5 0-2.6 0.5-3.3 1v-6.5h-3v18.1h3v-8.2c0.6-0.7 1.7-1.6 3.2-1.6 0.9 0 1.8 0.4 2.3 1.1 0.4 0.4 0.7 1 0.7 2.6v6.1h3v-6c0-2-0.4-3.3-1.3-4.4-1.1-1.4-2.8-2.2-4.6-2.2z"/><path fill-rule="evenodd" class="a" d="m78 13.1c0 2.3-1.2 4.4-3.2 5.6-0.9 0.5-2.1 0.8-3.2 0.8q-1.9 0-3.4-1v6.8h-3v-18.4h2.9v0.8q1.6-1.1 3.6-1.1c1.1 0 2.2 0.3 3.1 0.8 2 1.2 3.2 3.3 3.2 5.7zm-3-0.1c0-2-1.5-3.6-3.6-3.6-1.2 0-2.4 0.6-3.2 1.5v4.3c0.8 0.9 2 1.5 3.1 1.5 2.1 0 3.7-1.6 3.7-3.7z"/><path fill-rule="evenodd" class="a" d="m91.6 13.1q0 0.1-0.1 0.5v0.2h-9.2c0.2 1.8 1.8 3.1 3.6 3.1 1.6 0 2.6-0.8 3.2-1.5l0.2-0.3 2 1.9-0.1 0.2c-0.6 0.7-2.2 2.3-5.3 2.3-3.8 0-6.6-2.8-6.6-6.4 0-3.8 2.6-6.5 6.2-6.5 3.5 0 6.1 2.8 6.1 6.5zm-3.2-1.8c-0.4-1.2-1.6-2.1-2.8-2.1-1.4 0-2.5 0.8-3 2.1z"/><path fill-rule="evenodd" class="a" d="m102.7 6.9h2.9v12.3h-2.9v-0.8c-1 0.7-2.2 1.1-3.5 1.1-1.1 0-2.2-0.3-3.1-0.9-2.1-1.1-3.3-3.2-3.3-5.6 0-2.3 1.3-4.5 3.3-5.6 0.9-0.5 1.9-0.8 3.1-0.8q2 0 3.5 1.1zm-0.1 4.1c-0.8-1-2-1.5-3.2-1.5-2 0-3.6 1.5-3.6 3.6 0 2 1.7 3.6 3.8 3.6 1.1 0 2.3-0.6 3-1.5z"/><path class="a" d="m116.2 0.9h3.1v18.3h-3.1z"/><path class="a" d="m63.5 16.5c-0.4 0.1-1.1 0.2-1.5 0.2-0.7 0-1.5-0.3-1.8-0.7-0.3-0.3-0.4-0.9-0.4-1.6v-4.9h3.7v-2.6h-3.7v-5.8h-3v13.1q0 2.4 1.1 3.7c1 1 2.4 1.6 4 1.6 0.5 0 1.1-0.1 1.6-0.2z"/><path class="a" d="m22.3 6.7q-0.6-0.1-1.3-0.1c-1.4 0-2.5 0.5-3.2 1v-0.7h-3.1v12.3h3.1v-8.2c0.6-0.7 1.6-1.6 3.2-1.6 0.4 0 0.9 0.2 1.3 0.3z"/><path class="a" d="m114.9 6.7q-0.6-0.1-1.3-0.1c-1.4 0-2.5 0.5-3.3 1v-0.7h-3v12.3h3v-8.2c0.7-0.7 1.7-1.6 3.3-1.6 0.4 0 0.9 0.2 1.3 0.3z"/></g></svg>