<svg version="1.2" xmlns="http://www.w3.org/2000/svg" viewBox="0 0 156 33" width="156" height="33"><defs><clipPath clipPathUnits="userSpaceOnUse" id="cp1"><path d="m-155-903h1440v6408h-1440z"/></clipPath></defs><style>.a{fill:#3e4581}</style><g clip-path="url(#cp1)"><path fill-rule="evenodd" class="a" d="m125.3 25.7c-0.1 0-0.2-0.1-0.2-0.3v-1.3h-0.1c-0.6 1.1-1.8 1.9-3.9 1.9-2.3 0-4-1.1-4.7-3.3-0.4-1-0.5-2.1-0.5-3.8 0-1.7 0.1-2.8 0.5-3.9 0.7-2.1 2.4-3.2 4.7-3.2 2.1 0 3.3 0.8 3.9 1.8h0.1v-6.9c0-0.2 0.1-0.3 0.2-0.3h1.9c0.2 0 0.3 0.1 0.3 0.3v18.7c0 0.2-0.1 0.3-0.3 0.3zm-0.6-4c0.2-0.6 0.3-1.5 0.3-2.8 0-1.4-0.1-2.2-0.3-2.9-0.5-1.3-1.5-2-3.1-2-1.5 0-2.5 0.7-3 2-0.2 0.8-0.3 1.7-0.3 2.9 0 1.2 0.1 2.1 0.3 2.8 0.5 1.4 1.5 2.1 3 2.1 1.6 0 2.6-0.7 3.1-2.1zm14.8 4c-0.1 0-0.3-0.1-0.3-0.3v-1.2c-0.6 1-2 1.8-4 1.8-2.7 0-4.7-1.3-4.7-4.1 0-2.9 2-4.2 5.4-4.2h3.1q0.2 0 0.2-0.2v-1c0-1.8-0.8-2.6-3.3-2.6-1.5 0-2.5 0.4-3.3 0.9-0.2 0.2-0.3 0.2-0.4 0l-0.8-1.3q-0.1-0.2 0.1-0.4c1-0.8 2.6-1.3 4.6-1.3 3.9 0 5.4 1.2 5.4 4.6v9c0 0.2-0.1 0.3-0.3 0.3zm-0.3-4.4v-1.5q0-0.2-0.2-0.2h-2.7c-2.4 0-3.4 0.7-3.4 2.2 0 1.4 1 2.2 2.8 2.2 2.2 0 3.5-1 3.5-2.7zm6 9.5c-0.2 0-0.3-0.1-0.3-0.3v-1.6c0-0.2 0.1-0.3 0.3-0.3h0.5c1.1 0 1.7-0.5 2.4-2.1l0.4-1.2-5-12.9c-0.1-0.2 0-0.3 0.2-0.3h2q0.3 0 0.3 0.3l3.7 9.8 3.5-9.8q0.1-0.3 0.3-0.3h2c0.1 0 0.2 0.1 0.2 0.3l-5.4 14.3c-1.2 3.3-2.3 4.1-4.3 4.1z"/><path fill-rule="evenodd" class="a" d="m65.2 25.7c-0.2 0-0.3-0.1-0.3-0.3v-18.7c0-0.2 0.1-0.3 0.3-0.3h6.9c3.8 0 6.2 2.2 6.2 5.7 0 3.5-2.4 5.8-6.2 5.8h-4.5q-0.1 0-0.1 0.2v7.3c0 0.2-0.1 0.3-0.3 0.3zm10.6-13.6c0-2.1-1.4-3.4-3.8-3.4h-4.4q-0.1 0-0.1 0.2v6.5q0 0.2 0.1 0.2h4.4c2.4 0 3.8-1.4 3.8-3.5zm8.4 13.7c-2.4 0-3.3-1.1-3.3-3.5v-15.6c0-0.2 0.1-0.3 0.3-0.3h1.8c0.2 0 0.3 0.1 0.3 0.3v15.4c0 1.2 0.4 1.5 1.4 1.5h0.5c0.2 0 0.3 0.1 0.3 0.3v1.7c0 0.1-0.1 0.2-0.3 0.2zm12.1-0.1c-0.2 0-0.3-0.1-0.3-0.3v-1.2c-0.7 1-2 1.8-4.1 1.8-2.6 0-4.6-1.3-4.6-4.1 0-2.9 2-4.2 5.3-4.2h3.2q0.1 0 0.1-0.2v-1c0-1.8-0.7-2.6-3.3-2.6-1.5 0-2.5 0.4-3.3 0.9-0.1 0.2-0.3 0.2-0.4 0l-0.8-1.3c0-0.2 0-0.3 0.1-0.4 1-0.8 2.6-1.3 4.7-1.3 3.9 0 5.3 1.2 5.3 4.6v9c0 0.2-0.1 0.3-0.2 0.3zm-0.4-4.4v-1.5q0-0.2-0.2-0.2h-2.7c-2.4 0-3.4 0.7-3.4 2.2 0 1.4 1 2.2 2.9 2.2 2.1 0 3.4-1 3.4-2.7zm15 4.4c-0.2 0-0.3-0.1-0.3-0.3v-7.9c0-2.2-1-3.5-3.1-3.5-1.8 0-3.1 1.3-3.1 3.3v8.1c0 0.2-0.2 0.3-0.3 0.3h-1.9c-0.1 0-0.2-0.1-0.2-0.3v-13c0-0.2 0.1-0.3 0.2-0.3h1.9c0.1 0 0.3 0.1 0.3 0.3v1.2c0.7-1 2-1.8 3.8-1.8 3 0 4.8 2 4.8 5.1v8.5c0 0.2-0.1 0.3-0.3 0.3z"/><path class="a" d="m41 13.1c-0.6-2.7-2-5.3-4.4-7.3-5.9-4.8-14.2-3.9-18.8 1.7l-17 20.1c-1.1 1.3-1 2.7 0.2 3.7 1.2 1.1 2.7 0.9 3.8-0.4l10.1-12 6.8-8.1v0.1q0-0.1 0-0.1 0.2-0.2 0.3-0.3 0 0 0.1-0.1c3.1-3.3 8-3.3 11.2-0.6q0 0 0 0c3.8 3.2 3.6 8.3 0.9 11.4-0.1 0.1-0.3 0.4-0.3 0.4-3.1 3.3-7.9 3.3-11.2 0.6q-1.1-0.9-1.7-1.9c-0.6-0.9-1.7-0.9-2.4-0.2l-2.2 2.6q1.2 1.9 3 3.4c5.9 4.9 14.1 4 18.8-1.6 0 0 3.8-4.3 2.8-11.4z"/><path class="a" d="m41.1 13.1l10.1-12c1.1-1.3 2.6-1.5 3.8-0.4 1.2 1 1.3 2.4 0.2 3.7l-17 20.1c-4.7 5.6-12.9 6.5-18.8 1.6q-1.8-1.5-3-3.4l2.2-2.6c0.7-0.7 1.8-0.7 2.4 0.2q0.6 1 1.7 1.9c3.3 2.7 8.1 2.7 11.2-0.6 0 0 0.3-0.3 0.3-0.4z"/></g></svg>