<svg version="1.2" xmlns="http://www.w3.org/2000/svg" viewBox="0 0 136 24" width="136" height="24"><defs><clipPath clipPathUnits="userSpaceOnUse" id="cp1"><path d="m-414-906h1440v6408h-1440z"/></clipPath></defs><style>.a{fill:#3e4581}</style><g clip-path="url(#cp1)"><path fill-rule="evenodd" class="a" d="m120.2 14.4c0-5.3 1.5-9 7.7-9 6.3 0 7.8 3.7 7.8 9 0 5.3-1.5 9-7.8 9-6.1 0-7.7-3.7-7.7-9zm11.6 0c0-3.7-0.5-5.8-3.7-5.8-3.2 0-3.8 2.1-3.8 5.8 0 3.7 0.6 5.8 3.8 5.8 3.2 0 3.7-2.2 3.7-5.8zm-119.4 7.1c-1.6 1.2-3.6 1.9-5.6 1.9-4.5 0-6.1-2.3-6.1-5.6v-11.6c0-0.3 0.3-0.5 0.6-0.5h2.8c0.3 0 0.5 0.2 0.5 0.5v11.4c0 1.7 1 2.5 2.8 2.5 1.4 0 2.8-0.4 4-1.1v-12.8c0-0.3 0.3-0.5 0.6-0.5h2.8c0.2 0 0.5 0.2 0.5 0.5v16.2c0 0.3-0.3 0.6-0.5 0.6h-1.5c-0.1 0-0.3-0.2-0.4-0.3zm33.5 0.9c0 0.3-0.2 0.6-0.5 0.6h-2.9c-0.3 0-0.6-0.3-0.6-0.6v-11.6c0-1.7-1-2.2-2.5-2.2-1.2 0-2.5 0.4-3.6 1v12.8c0 0.3-0.3 0.6-0.5 0.6h-3c-0.3 0-0.5-0.3-0.5-0.6v-11.6c0-1.7-1-2.2-2.6-2.2-1.2 0-2.5 0.4-3.6 1v12.8c0 0.3-0.2 0.6-0.5 0.6h-2.9c-0.3 0-0.6-0.3-0.6-0.6v-16.2c0-0.3 0.3-0.5 0.6-0.5h1.4c0.2 0 0.3 0.1 0.4 0.2l0.6 1.2c1.4-1.2 3.3-1.8 5.2-1.8 2.2 0 3.7 0.6 4.4 1.7 1.7-1.1 3.6-1.7 5.6-1.7 4.1 0 5.7 2.2 5.7 5.5zm8.1 0.3c0 0.1-0.3 0.2-0.4 0.2h-1.5c-0.3 0-0.5-0.2-0.5-0.5v-21c0-0.3 0.1-0.5 0.4-0.5h2.9c0.3 0 0.5 0.2 0.5 0.5v5.3c1.4-0.8 3.1-1.3 4.7-1.3 5.1 0 7 3.4 7 8.9 0 5.6-1.9 9-7 9-2 0-4-0.6-5.6-1.8zm9.1-8.3c0-3.2-0.4-5.9-3.9-5.9-1.3 0-2.5 0.4-3.7 1.1v9.4c1 0.6 2.4 1 3.7 1 3.5 0 3.9-2.5 3.9-5.6zm18.4-5.7c-0.4 0-0.9-0.2-1.3-0.2-1.6 0-3.1 0.3-4.4 1.1v12.8c0 0.3-0.3 0.5-0.6 0.5h-2.9c-0.3 0-0.5-0.2-0.5-0.5v-16.2c0-0.3 0.2-0.6 0.5-0.6h1.5c0.1 0 0.4 0.2 0.4 0.3l0.5 1.2c1.6-1.2 3.5-1.9 5.5-1.9 0.4 0 0.9 0 1.3 0.2 0.3 0 0.6 0.4 0.6 0.6v2.2c0 0.2-0.3 0.5-0.6 0.5zm14.7 12.8c-1.5 1.2-3.3 1.8-5.2 1.8-4.5 0-6-2.7-6-5.5 0-3.7 2.4-5.3 6.4-5.7l3.9-0.2v-0.8c0-1.8-0.8-2.6-3.5-2.6q-2.4 0-4.8 0.8h-0.1c-0.3 0-0.6-0.2-0.6-0.5v-2.2c0-0.3 0.2-0.4 0.4-0.6 1.8-0.5 3.6-0.9 5.4-0.9 5.7 0 7.1 2.5 7.1 6.1v11c0 0.2-0.3 0.5-0.6 0.5h-1.5c-0.1 0-0.4-0.1-0.4-0.3zm-4.6-6.5c-1.8 0.3-2.8 0.8-2.8 2.7 0 1.3 0.5 2.5 2.6 2.5 1.4 0 2.7-0.4 3.8-1.2v-4.5zm24.4 4.4h0.2c0.2 0 0.5 0.2 0.5 0.5v2.2c0 0.3-0.1 0.4-0.3 0.6-1.4 0.5-2.9 0.8-4.5 0.6-6.2 0-8-3.7-8-8.9 0-5.3 1.8-9 8-9 1.5 0 3.1 0.1 4.4 0.6 0.1 0.2 0.3 0.3 0.3 0.6v2.2c0 0.3-0.3 0.5-0.6 0.5h-0.1c-1.2-0.4-2.5-0.5-3.9-0.5-3.3 0-4.4 2.3-4.4 5.7 0 3.4 0.9 5.7 4.4 5.7 1.5-0.3 2.8-0.4 4-0.8z"/></g></svg>