<svg version="1.2" xmlns="http://www.w3.org/2000/svg" viewBox="0 0 102 17" width="102" height="17"><defs><clipPath clipPathUnits="userSpaceOnUse" id="cp1"><path d="m-669-4496h1440v6408h-1440z"/></clipPath></defs><style>.a{fill:#fbb040}</style><g clip-path="url(#cp1)"><path class="a" d="m9.2 0l2.3 6.3 6.9 0.2-5.5 4.1 2 6.4-5.7-3.8-5.7 3.8 2-6.4-5.5-4.1 6.9-0.2z"/><path class="a" d="m29.8 0l2.3 6.3 6.9 0.2-5.4 4.1 1.9 6.4-5.7-3.8-5.6 3.8 1.9-6.4-5.4-4.1 6.8-0.2z"/><path class="a" d="m50.5 0l2.3 6.3 6.9 0.2-5.5 4.1 2 6.4-5.7-3.8-5.7 3.8 2-6.4-5.5-4.1 6.9-0.2z"/><path class="a" d="m71.2 0l2.3 6.3 6.8 0.2-5.4 4.1 1.9 6.4-5.6-3.8-5.7 3.8 1.9-6.4-5.4-4.1 6.9-0.2z"/><path class="a" d="m91.8 0l2.3 6.3 6.9 0.2-5.5 4.1 2 6.4-5.7-3.8-5.7 3.8 2-6.4-5.5-4.1 6.9-0.2z"/></g></svg>