<svg version="1.2" xmlns="http://www.w3.org/2000/svg" viewBox="0 0 28 28" width="28" height="28"><defs><clipPath clipPathUnits="userSpaceOnUse" id="cp1"><path d="m-308-1349h1440v6408h-1440z"/></clipPath></defs><style>.a{fill:#ae68fa}.b{fill:#fff;stroke:#ae68fa;stroke-miterlimit:100;stroke-width:2}</style><g clip-path="url(#cp1)"><path class="a" d="m19.5 5.9c0.5 0 1.1-0.2 1.5-0.5l4-2.7v12.7c0 0.8-0.6 1.4-1.4 1.4h-1.4v2.8h1.4c2.3 0 4.1-1.9 4.1-4.2v-12.7c0-2.1-2.4-3.5-4.3-2.2l-3.9 2.6h-9.6c-2.3 0-4.1 1.8-4.1 4.1v1.4h2.7v-1.4c0-0.7 0.6-1.3 1.4-1.3z"/><path fill-rule="evenodd" class="b" d="m4.7 27c-1.8 1.4-4.4 0.1-4.4-2.2v-12.1c0-2.3 1.8-4.1 4.1-4.1h13.7c2.3 0 4.1 1.8 4.1 4.1v8.2c0 2.3-1.8 4.1-4.1 4.1h-11zm0.7-4c0.5-0.4 1.1-0.6 1.7-0.6h11c0.8 0 1.4-0.6 1.4-1.4v-8.2c0-0.8-0.6-1.4-1.4-1.4h-13.7c-0.8 0-1.4 0.6-1.4 1.4v12.1z"/><path class="a" d="m5.8 16.8c0-0.7 0.6-1.4 1.3-1.4h8.3c0.7 0 1.3 0.7 1.3 1.4 0 0.8-0.6 1.4-1.3 1.4h-8.3c-0.7 0-1.3-0.6-1.3-1.4z"/></g></svg>