<svg version="1.2" xmlns="http://www.w3.org/2000/svg" viewBox="0 0 42 42" width="42" height="42"><defs><clipPath clipPathUnits="userSpaceOnUse" id="cp1"><path d="m-623-1653h1440v6408h-1440z"/></clipPath><filter x="-50%" y="-50%" width="200%" height="200%" id="f1" ><feDropShadow dx="-6.123233995736766e-17" dy="1" stdDeviation="2.5" flood-color="#000000" flood-opacity=".1"/></filter></defs><style>.a{filter:url(#f1);fill:none;stroke:#ae68fa;stroke-miterlimit:100;stroke-width:2}</style><g clip-path="url(#cp1)"><path fill-rule="evenodd" class="a" d="m34.6 19.8c0 7.6-6.2 13.8-13.8 13.8-7.6 0-13.8-6.2-13.8-13.8 0-7.6 6.2-13.8 13.8-13.8 7.6 0 13.8 6.2 13.8 13.8zm-24.5-2.8q-0.3 1.4-0.3 2.8 0 1.4 0.3 2.7h3.9q-0.1-1.3-0.1-2.7 0-1.4 0.1-2.8zm1.2-2.7h3.2q0.4-2.2 1.1-3.8 0.2-0.3 0.3-0.6c-1.9 1-3.6 2.5-4.6 4.4zm5.5 2.7q-0.1 1.4-0.1 2.8 0 1.4 0.1 2.7h8q0.1-1.3 0.1-2.7 0-1.4-0.1-2.8zm6.6-5.4c-0.4-1-0.9-1.8-1.4-2.2-0.5-0.5-0.9-0.6-1.2-0.6-0.3 0-0.7 0.1-1.2 0.6-0.5 0.4-1 1.2-1.4 2.2q-0.6 1.2-0.9 2.7h7q-0.3-1.5-0.9-2.7zm4.2 5.4q0.1 1.4 0.1 2.8 0 1.4-0.1 2.7h3.9q0.3-1.3 0.3-2.7 0-1.4-0.3-2.8zm-1.9-7.1q0.2 0.3 0.3 0.6 0.7 1.6 1.2 3.8h3.2c-1.1-1.9-2.7-3.4-4.7-4.4zm-10 19.2q-0.8-1.7-1.2-3.8h-3.2c1 1.9 2.7 3.4 4.6 4.4q-0.1-0.3-0.2-0.6zm3.9 1.1c0.5 0.5 0.9 0.6 1.2 0.6 0.3 0 0.7-0.1 1.2-0.6 0.5-0.4 1-1.2 1.5-2.2q0.5-1.2 0.8-2.7h-7q0.4 1.5 0.9 2.7c0.4 1 0.9 1.8 1.4 2.2zm6.1-0.5c2-1 3.6-2.5 4.7-4.4h-3.2q-0.5 2.1-1.2 3.8-0.1 0.3-0.3 0.6z"/></g></svg>