<svg version="1.2" xmlns="http://www.w3.org/2000/svg" viewBox="0 0 38 42" width="38" height="42"><defs><clipPath clipPathUnits="userSpaceOnUse" id="cp1"><path d="m-625-1343h1440v6408h-1440z"/></clipPath><filter x="-50%" y="-50%" width="200%" height="200%" id="f1" ><feDropShadow dx="-6.123233995736766e-17" dy="1" stdDeviation="2.5" flood-color="#000000" flood-opacity=".1"/></filter></defs><style>.a{filter:url(#f1);fill:none;stroke:#ae68fa;stroke-miterlimit:100;stroke-width:2}</style><g clip-path="url(#cp1)"><path fill-rule="evenodd" class="a" d="m17.4 6.2c0.8-0.3 1.7-0.3 2.4 0l7.8 2.7c1.6 0.5 2.6 2.1 2.6 3.8v7.1c0 7.4-7.1 11.9-10.2 13.4-0.9 0.5-1.9 0.5-2.7 0-3.1-1.5-10.3-6-10.3-13.4v-7.1c0-1.7 1.1-3.3 2.6-3.8zm0.9 2.5l-7.8 2.7c-0.5 0.2-0.9 0.7-0.9 1.3v7.1c0 2.7 1.3 5 3.2 7 1.9 1.9 4.2 3.3 5.6 4q0.3 0.1 0.5 0c1.4-0.7 3.7-2.1 5.6-4 1.9-2 3.2-4.3 3.2-7v-7.1c0-0.6-0.3-1.1-0.9-1.3l-7.7-2.7q-0.4-0.1-0.8 0z"/></g></svg>