<svg version="1.2" xmlns="http://www.w3.org/2000/svg" viewBox="0 0 42 41" width="42" height="41"><defs><clipPath clipPathUnits="userSpaceOnUse" id="cp1"><path d="m-945-1344h1440v6408h-1440z"/></clipPath><filter x="-50%" y="-50%" width="200%" height="200%" id="f1" ><feDropShadow dx="-6.123233995736766e-17" dy="1" stdDeviation="2.5" flood-color="#000000" flood-opacity=".1"/></filter></defs><style>.a{filter:url(#f1);fill:#ae68fa}</style><g clip-path="url(#cp1)"><path fill-rule="evenodd" class="a" d="m20.8 8.8c-6.1 0-11 4.9-11 11h2.7c2.3 0 4.2 1.8 4.2 4.1v4.2c0 2.2-1.9 4.1-4.2 4.1h-1.4c-2.2 0-4.1-1.9-4.1-4.1v-8.3c0-7.6 6.2-13.8 13.8-13.8 7.6 0 13.8 6.2 13.8 13.8v8.3c0 2.2-1.9 4.1-4.2 4.1h-1.3c-2.3 0-4.2-1.9-4.2-4.1v-4.2c0-2.3 1.9-4.1 4.2-4.1h2.7c0-6.1-4.9-11-11-11zm11 13.7h-2.7c-0.8 0-1.4 0.7-1.4 1.4v4.2c0 0.7 0.6 1.3 1.4 1.3h1.3c0.8 0 1.4-0.6 1.4-1.3zm-22 0v5.5c0 0.7 0.6 1.4 1.3 1.4h1.4c0.8 0 1.4-0.7 1.4-1.4v-4.2c0-0.7-0.6-1.3-1.4-1.3z"/></g></svg>