<svg version="1.2" xmlns="http://www.w3.org/2000/svg" viewBox="0 0 41 42" width="41" height="42"><defs><clipPath clipPathUnits="userSpaceOnUse" id="cp1"><path d="m-302-1653h1440v6408h-1440z"/></clipPath><filter x="-50%" y="-50%" width="200%" height="200%" id="f1" ><feDropShadow dx="-6.123233995736766e-17" dy="1" stdDeviation="2.5" flood-color="#000000" flood-opacity=".1"/></filter></defs><style>.a{filter:url(#f1);fill:#ae68fa}</style><g clip-path="url(#cp1)"><path fill-rule="evenodd" class="a" d="m7 10.1c0-2.2 1.9-4.1 4.1-4.1h13.8c1.8 0 3.4 1.2 3.9 2.8h0.3c2.2 0 4.1 1.8 4.1 4.1v2.6c0 1.9-1.4 3.6-3.3 4l-9.4 1.9c-0.6 0.1-1.1 0.7-1.1 1.3v0.2c0.8 0.5 1.4 1.4 1.4 2.4v5.5c0 1.5-1.2 2.8-2.8 2.8-1.5 0-2.7-1.3-2.7-2.8v-5.5c0-1 0.5-1.9 1.4-2.4v-0.2c0-1.9 1.3-3.6 3.3-4l9.3-1.9c0.7-0.1 1.1-0.7 1.1-1.3v-2.6c0-0.8-0.6-1.4-1.3-1.4 0 2.3-1.9 4.2-4.2 4.2h-13.8c-2.2 0-4.1-1.9-4.1-4.2zm19.3 0c0-0.7-0.6-1.4-1.4-1.4h-13.8c-0.7 0-1.3 0.7-1.3 1.4v1.4c0 0.8 0.6 1.4 1.3 1.4h13.8c0.8 0 1.4-0.6 1.4-1.4z"/></g></svg>