<svg version="1.2" xmlns="http://www.w3.org/2000/svg" viewBox="0 0 25 28" width="25" height="28"><defs><clipPath clipPathUnits="userSpaceOnUse" id="cp1"><path d="m-954-1659h1440v6408h-1440z"/></clipPath></defs><style>.a{fill:#ae68fa}</style><g clip-path="url(#cp1)"><path class="a" d="m4.1 2.8c-0.7 0-1.3 0.6-1.3 1.3v19.3c0 0.8 0.6 1.4 1.3 1.4h16.6c0.7 0 1.4-0.6 1.4-1.4v-9.6c0-0.8 0.6-1.4 1.3-1.4 0.8 0 1.4 0.6 1.4 1.4v9.6c0 2.3-1.8 4.2-4.1 4.2h-16.6c-2.2 0-4.1-1.9-4.1-4.2v-19.3c0-2.2 1.9-4.1 4.1-4.1h8.3c0.8 0 1.4 0.6 1.4 1.4 0 0.7-0.6 1.4-1.4 1.4z"/><path fill-rule="evenodd" class="a" d="m17.4 2.9c1.6-1.6 4.2-1.6 5.8 0 1.7 1.6 1.7 4.3 0 5.9l-10.4 10.4q-0.3 0.3-0.7 0.4l-4.6 0.6c-0.9 0.1-1.7-0.6-1.6-1.5l0.7-4.6q0.1-0.4 0.4-0.8zm-1 4.9l-7.1 7.2-0.4 2.2 2.3-0.3 7.2-7.1zm4.8-1c0.6-0.6 0.6-1.4 0-2-0.5-0.5-1.4-0.5-1.9 0l-1 1 2 2z"/></g></svg>