<svg version="1.2" xmlns="http://www.w3.org/2000/svg" viewBox="0 0 35 35" width="35" height="35"><defs><clipPath clipPathUnits="userSpaceOnUse" id="cp1"><path d="m-1311-242h1440v6408h-1440z"/></clipPath><linearGradient id="P" gradientUnits="userSpaceOnUse"/><linearGradient id="g1" x2="1" href="#P" gradientTransform="matrix(6.375,10.517,-7.892,4.784,14.467,10.286)"><stop stop-color="#ae68fa"/><stop offset="1" stop-color="#f1966e"/></linearGradient><linearGradient id="g2" x2="1" href="#P" gradientTransform="matrix(12.612,4.682,-2.962,7.98,11.348,20.01)"><stop stop-color="#ae68fa"/><stop offset="1" stop-color="#f1966e"/></linearGradient></defs><style>.a{fill:url(#g1)}.b{fill:url(#g2)}.c{fill:none;stroke:#55608b;stroke-miterlimit:100;stroke-width:.9}</style><g clip-path="url(#cp1)"><path class="a" d="m18.3 11c0-0.4-0.3-0.7-0.6-0.7-0.4 0-0.7 0.3-0.7 0.7v7.3l-1.4-1.3c-0.2-0.3-0.7-0.3-0.9 0-0.3 0.3-0.3 0.7 0 1l2.5 2.6q0.1 0.1 0.2 0.2 0.1 0 0.3 0 0.1 0 0.3-0.1 0 0 0.1 0 0-0.1 0.1-0.1l2.4-2.6c0.3-0.3 0.3-0.7 0-1-0.2-0.3-0.7-0.3-0.9 0l-1.4 1.3z"/><path class="b" d="m12 20c0.4 0 0.7 0.3 0.7 0.7v2q0 0.2 0.2 0.4 0.2 0.1 0.4 0.2h8.7q0.2-0.1 0.4-0.2 0.2-0.2 0.2-0.4v-2c0-0.4 0.3-0.7 0.7-0.7 0.3 0 0.7 0.3 0.7 0.7v2c0 0.5-0.2 1-0.6 1.4-0.4 0.4-0.9 0.6-1.4 0.6h-8.7c-0.5 0-1-0.2-1.4-0.6-0.3-0.4-0.6-0.9-0.6-1.4v-2c0-0.4 0.4-0.7 0.7-0.7z"/><path class="c" d="m17.7 34.6c-9.5 0-17.2-7.7-17.2-17.1 0-9.5 7.7-17.1 17.2-17.1 9.4 0 17.1 7.6 17.1 17.1 0 9.4-7.7 17.1-17.1 17.1z"/></g></svg>