<svg version="1.2" xmlns="http://www.w3.org/2000/svg" viewBox="0 0 36 35" width="36" height="35"><defs><clipPath clipPathUnits="userSpaceOnUse" id="cp1"><path d="m-1271-242h1440v6408h-1440z"/></clipPath><linearGradient id="P" gradientUnits="userSpaceOnUse"/><linearGradient id="g1" x2="1" href="#P" gradientTransform="matrix(14.414,14.407,-14.407,14.414,10.812,10.285)"><stop stop-color="#ae68fa"/><stop offset="1" stop-color="#f1966e"/></linearGradient></defs><style>.a{fill:url(#g1)}.b{fill:none;stroke:#55608b;stroke-miterlimit:100;stroke-width:.9}</style><g clip-path="url(#cp1)"><path fill-rule="evenodd" class="a" d="m24.6 10.9c0.4 0.4 0.6 1 0.6 1.5v10.1c0 0.6-0.2 1.2-0.6 1.6-0.4 0.4-1 0.6-1.5 0.6h-10.1c-0.6 0-1.1-0.2-1.6-0.6-0.4-0.4-0.6-1-0.6-1.6v-10.1c0-0.5 0.2-1.1 0.6-1.5 0.5-0.4 1-0.6 1.6-0.6h10.1c0.5 0 1.1 0.2 1.5 0.6zm-5.9 0.8v5.1h5.1v-4.4q0-0.3-0.2-0.5-0.2-0.2-0.5-0.2zm-6.5 5.1h5v-5.1h-4.3q-0.3 0-0.5 0.2-0.2 0.2-0.2 0.5zm5 6.5v-5h-5v4.3q0 0.3 0.2 0.5 0.2 0.2 0.5 0.2zm6.5-5h-5.1v5h4.4q0.3 0 0.5-0.2 0.2-0.2 0.2-0.5z"/><path class="b" d="m18 34.6c-9.4 0-17.1-7.7-17.1-17.1 0-9.5 7.7-17.1 17.1-17.1 9.5 0 17.1 7.6 17.1 17.1 0 9.4-7.6 17.1-17.1 17.1z"/></g></svg>