<?xml version="1.0" encoding="utf-8"?>
<!-- Generator: Adobe Illustrator 28.3.0, SVG Export Plug-In . SVG Version: 6.00 Build 0)  -->
<svg version="1.1" id="katman_1" xmlns="http://www.w3.org/2000/svg" xmlns:xlink="http://www.w3.org/1999/xlink" x="0px" y="0px"
	 viewBox="0 0 181.4 181.4" style="enable-background:new 0 0 181.4 181.4;" xml:space="preserve">
<style type="text/css">
	.st0{clip-path:url(#SVGID_00000176019189992773470970000012845063884165009085_);}
	.st1{fill:url(#SVGID_00000033357538646128902270000002304341570059438980_);}
	.st2{clip-path:url(#SVGID_00000113317452491969642990000009475692634720559804_);}
	.st3{fill-rule:evenodd;clip-rule:evenodd;fill:#E3EAF3;}
</style>
<g>
	<defs>
		<rect id="SVGID_1_" x="5.5" y="-73.5" width="1440" height="6408"/>
	</defs>
	<clipPath id="SVGID_00000166653900465879253900000006400665542536161180_">
		<use xlink:href="#SVGID_1_"  style="overflow:visible;"/>
	</clipPath>
	<g style="clip-path:url(#SVGID_00000166653900465879253900000006400665542536161180_);">
		
			<linearGradient id="SVGID_00000179645399285130226290000004521429803816286359_" gradientUnits="userSpaceOnUse" x1="100.3839" y1="138.5379" x2="148.3804" y2="127.7167">
			<stop  offset="0" style="stop-color:#B474ED"/>
			<stop  offset="0.9865" style="stop-color:#E27DA9"/>
		</linearGradient>
		<path style="fill:url(#SVGID_00000179645399285130226290000004521429803816286359_);" d="M148.3,130.7c0.1,0.9-0.4,1.8-1.2,2.3
			l-12.7,7.4l-1.2,14.6c0,1-0.6,1.7-1.5,2.1c-0.8,0.3-1.8,0.2-2.5-0.5l-10.9-9.8l-14.3,3.5c-0.9,0.2-1.9-0.1-2.5-0.8
			c-0.5-0.7-0.7-1.7-0.3-2.5l5.9-13.5L99.4,121c-0.4-0.8-0.4-1.8,0.1-2.6c0.4-0.8,1.3-1.2,2.2-1.1l14.7,1.5l9.5-11.2
			c0.6-0.7,1.6-1,2.4-0.8c0.9,0.3,1.6,1,1.8,1.9l3.1,14.4l13.6,5.6C147.7,129,148.2,129.8,148.3,130.7z"/>
	</g>
</g>
<g>
	<g>
		<defs>
			
				<rect id="SVGID_00000092458090446261068950000005983154998186401952_" x="875.4" y="-451.2" transform="matrix(0.9561 -0.2932 0.2932 0.9561 -736.9216 588.6755)" width="1440" height="6408"/>
		</defs>
		<clipPath id="SVGID_00000063629194994667731830000005476484666380715184_">
			<use xlink:href="#SVGID_00000092458090446261068950000005983154998186401952_"  style="overflow:visible;"/>
		</clipPath>
		<g style="clip-path:url(#SVGID_00000063629194994667731830000005476484666380715184_);">
			<path class="st3" d="M118.3,135c-9.9-6.2-19.7-12.8-29.6-19c-1.9-1.2-1.1-4.4,1.1-4.1c4.4,0,8.6,0.3,12.9,0.3
				c-3.1-3-6.9-3.8-11.4-4.5c-1.9-0.4-3.9-1.2-4.4-3.2c-0.9-3.3,2.3-6.8,4.1-9.2c4.4-6.2,9.6-11.7,13.4-18.5
				c4.1-7.8-1.6-8.1-7.8-6.5c-6.6,1.6-13.3,4.5-19.3,7.8C67,83.9,56.3,90.7,44.4,92.3c-6.7,0.8-16.5-2.8-16.1-11.1
				C28.9,71,36.6,59.4,44.3,53c3.9-3.8,32.5-24.8,16.3-27.2c-11.9-1.7-26.7,7.9-36.5,13.6c-1.3,0.7-2.7-1.2-1.5-2.2
				C31.8,30,43.4,24.4,54.9,22c6.3-1.3,17.8,1,15.2,10c-3,10.6-15.1,17.4-23.1,24c-5.2,4.1-9.1,10.6-12.2,16.3
				c-6.6,12,2.7,17.6,13.7,14.7c13.5-3.5,24.6-13,37.3-18.2c4.6-1.8,19.8-8.4,23.4-1c4.2,8.6-6.7,19.7-11.6,25.7
				c0.2-0.4-8.1,9.5-6.3,10.1c1.7,0.6,3.7,0.6,5.6,1c3.5,0.9,6.4,2.4,8.6,4.9c-0.1-3.6,0.1-7.2,0.7-10.8c0.5-1.8,3.3-1.9,4.2-0.5
				c5.8,10.9,7.2,23,10.9,34.5C122.3,134.5,120,136.1,118.3,135z M109,114.4c-0.1,1.2-1,1.6-1.7,1.4c-0.5,0.6-1,0.9-1.7,0.8
				c-2.5,0-5.1,0-7.6-0.1c5.9,3.9,11.8,7.8,17.7,11.6c-1.9-7.2-3.3-14.6-6.1-21.5C109.5,109.1,109.3,111.8,109,114.4z"/>
		</g>
	</g>
</g>
</svg>
