<svg version="1.2" xmlns="http://www.w3.org/2000/svg" viewBox="0 0 50 51" width="50" height="51"><defs><clipPath clipPathUnits="userSpaceOnUse" id="cp1"><path d="m-93-180h1440v6408h-1440z"/></clipPath></defs><style>.a{fill:#fcb901}</style><g clip-path="url(#cp1)"><path class="a" d="m49.8 24.2c0.1 0.9-0.4 1.8-1.2 2.3l-12.7 7.4-1.2 14.6c0 1-0.6 1.7-1.5 2.1-0.8 0.3-1.8 0.2-2.5-0.5l-10.9-9.8-14.3 3.5c-0.9 0.2-1.9-0.1-2.5-0.8-0.5-0.7-0.7-1.7-0.3-2.5l5.9-13.5-7.7-12.5c-0.4-0.8-0.4-1.8 0.1-2.6 0.4-0.8 1.3-1.2 2.2-1.1l14.7 1.5 9.5-11.2c0.6-0.7 1.6-1 2.4-0.8 0.9 0.3 1.6 1 1.8 1.9l3.1 14.4 13.6 5.6c0.9 0.3 1.4 1.1 1.5 2z"/></g></svg>