<svg version="1.2" xmlns="http://www.w3.org/2000/svg" viewBox="0 0 12 13" width="12" height="13"><defs><clipPath clipPathUnits="userSpaceOnUse" id="cp1"><path d="m-1106-6252h1440v6408h-1440z"/></clipPath></defs><style>.a{fill:#3e4581}</style><g clip-path="url(#cp1)"><path fill-rule="evenodd" class="a" d="m8.2 3.8c0.6 0.6 0.9 1.4 0.9 2.2 0 0.8-0.3 1.6-0.9 2.2-0.6 0.6-1.4 0.9-2.2 0.9-0.8 0-1.6-0.3-2.2-0.9-0.6-0.6-0.9-1.4-0.9-2.2 0-0.8 0.3-1.6 0.9-2.2 0.6-0.6 1.4-0.9 2.2-0.9 0.8 0 1.6 0.3 2.2 0.9zm-0.8 3.6c0.4-0.4 0.6-0.9 0.6-1.4 0-0.5-0.2-1-0.6-1.4-0.4-0.4-0.9-0.6-1.4-0.6-0.5 0-1 0.2-1.4 0.6-0.4 0.4-0.6 0.9-0.6 1.4 0 0.5 0.2 1 0.6 1.4 0.4 0.4 0.9 0.6 1.4 0.6 0.5 0 1-0.2 1.4-0.6z"/><path class="a" d="m9.9 2.8c0 0.4-0.3 0.7-0.7 0.7-0.4 0-0.7-0.3-0.7-0.7 0-0.4 0.3-0.7 0.7-0.7 0.4 0 0.7 0.3 0.7 0.7z"/><path fill-rule="evenodd" class="a" d="m12 3.5c0 0.7 0 0.9 0 2.5 0 1.6 0 1.9 0 2.5q-0.1 0.7-0.3 1.4-0.3 0.7-0.7 1.1-0.5 0.5-1.1 0.7-0.7 0.3-1.4 0.3c-0.7 0-0.9 0-2.5 0-1.6 0-1.8 0-2.5 0q-0.7 0-1.4-0.3-0.6-0.3-1.1-0.7-0.4-0.5-0.7-1.1-0.2-0.7-0.3-1.4c0-0.7 0-0.9 0-2.5 0-1.6 0-1.8 0-2.5q0.1-0.7 0.3-1.4 0.3-0.6 0.7-1.1 0.5-0.4 1.1-0.7 0.7-0.2 1.4-0.3c0.7 0 0.9 0 2.5 0 1.6 0 1.8 0 2.5 0q0.7 0.1 1.4 0.3 0.6 0.3 1.1 0.7 0.4 0.5 0.7 1.1 0.2 0.7 0.3 1.4zm-1.1 4.9c0-0.6 0-0.8 0-2.4 0-1.6 0-1.8 0-2.4q0-0.6-0.2-1.2-0.2-0.4-0.5-0.7-0.3-0.2-0.7-0.4-0.5-0.2-1.1-0.2c-0.6 0-0.8 0-2.4 0-1.6 0-1.8 0-2.5 0q-0.5 0-1.1 0.2c-0.5 0.2-0.9 0.6-1.1 1.1q-0.2 0.6-0.2 1.2c-0.1 0.6-0.1 0.8-0.1 2.4 0 1.6 0 1.8 0.1 2.4q0 0.6 0.2 1.1 0.1 0.4 0.4 0.7 0.3 0.3 0.7 0.5 0.6 0.2 1.1 0.2c0.7 0 0.8 0 2.5 0 1.6 0 1.8 0 2.4 0q0.6 0 1.1-0.2 0.4-0.2 0.7-0.5 0.3-0.3 0.5-0.7 0.2-0.5 0.2-1.1z"/></g></svg>