<svg version="1.2" xmlns="http://www.w3.org/2000/svg" viewBox="0 0 13 9" width="13" height="9"><defs><clipPath clipPathUnits="userSpaceOnUse" id="cp1"><path d="m-1146-6254h1440v6408h-1440z"/></clipPath></defs><style>.a{fill:#3e4581}</style><g clip-path="url(#cp1)"><path fill-rule="evenodd" class="a" d="m13 4.5c0 0 0 2.1-0.3 3.1q-0.1 0.4-0.4 0.7-0.3 0.3-0.7 0.4c-1 0.3-5.1 0.3-5.1 0.3 0 0-4.1 0-5.1-0.3-0.5-0.1-1-0.6-1.1-1.1-0.3-1-0.3-3.1-0.3-3.1 0 0 0-2.1 0.3-3.1q0.1-0.4 0.4-0.7 0.3-0.3 0.7-0.4c1-0.3 5.1-0.3 5.1-0.3 0 0 4.1 0 5.1 0.3q0.4 0.1 0.7 0.4 0.3 0.3 0.4 0.7c0.3 1 0.3 3.1 0.3 3.1zm-4.4 0l-3.4-1.9v3.8z"/></g></svg>