<svg version="1.2" xmlns="http://www.w3.org/2000/svg" viewBox="0 0 12 16" width="12" height="16"><defs><clipPath clipPathUnits="userSpaceOnUse" id="cp1"><path d="m-1101-2160h1440v6408h-1440z"/></clipPath><linearGradient id="P" gradientUnits="userSpaceOnUse"/><linearGradient id="g1" x2="1" href="#P" gradientTransform="matrix(11,15,-13.129,9.628,1,1)"><stop stop-color="#ae68fa"/><stop offset="1" stop-color="#f1966e"/></linearGradient></defs><style>.a{fill:url(#g1)}</style><g clip-path="url(#cp1)"><path fill-rule="evenodd" class="a" d="m1 6.8c0-3.2 2.5-5.8 5.5-5.8 3 0 5.5 2.6 5.5 5.8 0 4.2-5.5 9.2-5.5 9.2 0 0-5.5-5-5.5-9.2zm5.5 2.5c1.3 0 2.4-1.2 2.4-2.5 0-1.4-1.1-2.6-2.4-2.6-1.3 0-2.4 1.2-2.4 2.6 0 1.3 1.1 2.5 2.4 2.5z"/></g></svg>